<?xml version="1.0" encoding="utf-8"?>
<!-- Generator: Adobe Illustrator 16.0.0, SVG Export Plug-In . SVG Version: 6.00 Build 0)  -->
<!DOCTYPE svg PUBLIC "-//W3C//DTD SVG 1.1//EN" "http://www.w3.org/Graphics/SVG/1.1/DTD/svg11.dtd">
<svg version="1.1" id="Layer_1" xmlns="http://www.w3.org/2000/svg" xmlns:xlink="http://www.w3.org/1999/xlink" x="0px" y="0px"
	 width="718.233px" height="1280px" viewBox="0 0 718.233 1280" enable-background="new 0 0 718.233 1280" xml:space="preserve">
<linearGradient id="SVGID_1_" gradientUnits="userSpaceOnUse" x1="359.1167" y1="191.8252" x2="359.1167" y2="1120.5643">
	<stop  offset="0" style="stop-color:#601524"/>
	<stop  offset="0.8652" style="stop-color:#54001F"/>
</linearGradient>
<path fill="url(#SVGID_1_)" d="M680.404,1072.582c25.406-13.41,55.385-68.187,25.08-105.806
	c-42.844-54.342-30.828-36.053-68.447-86.212s14.107-65.314,8.359-125.399c-3.531-36.925-38.236-70.442-67.744-99.349
	c7.152-20.343,0.941-44.566-9.064-67.073c-10.957-24.65-16.158-43.374-18.309-58.642c5.178-11.193,10.264-21.562,13.086-30.438
	c8.514-26.798,5.701-48.247,0.832-75.08c0.963-16.592,1.568-39.154,0.473-65.472c-1.439-34.553-10.223-68.202-16.818-89.115
	c-0.572-6.876-1.299-15.4-2.252-26.348c-7.314-84.131-37.947-145.721-71.061-179.225c-25.756-26.063-59.076-25.243-64.17-26.941
	c-5.094-1.699-10.482-7.936-20.212-15.642c-7.932-6.283-35.006-23.253-72.104-20.9c-37.098,2.352-105.279,28.325-152.308,79.942
	c-64.267,70.537-75.24,164.978-75.24,241.001c0,62.699,18.21,114.546,16.198,130.232c-4.3,33.53-32.623,59.291-37.303,98.791
	c-29.9,37.267-65.444,80.233-40.811,102.108c13.256,11.773,28.792,5.226,28.792,5.226s-32.97,5.747-29.836-23.512
	c1.843-17.205,26.42-37.899,42.521-56.603c0.024,0.146,0.037,0.287,0.061,0.434c9.405,56.429,44.934,107.636,16.719,149.434
	c-28.215,41.799-62.176,37.097-82.554,98.229c-20.377,61.131,38.146,95.096,42.849,160.93
	c4.703,65.835-31.876,69.229-42.065,142.379c-4.415,31.692,10.755,55.315,28.193,66.688c-3.216,2.098-14.218,22.529-2.33,45.387
	c11.143,21.427,43.462,33.144,82.483,27.36c1.587,0.429,3.417,0.885,5.557,1.378c19.941,4.589,88.302,5.747,143.165-53.818
	c43.156-46.856,38.784-116.986,31.14-173.776c34.852-76.023-20.524-130.424-45.081-158.348
	c-40.138-45.641,13.486-102.808,25.697-156.148c4.561-19.916,1.361-41.189-5.263-61.126c1.914-3.074,4.04-6.932,6.308-11.778
	c15.794-33.735-7.712-63.795-45.98-105.542c-34.485-37.62-56.428-70.006-72.103-144.201c-15.674-74.195-7.317-123.303-7.317-123.303
	s12.767-7.392,43.68-29.294c5.915-0.864,23.008-3.669,37.569-9.11c17.932-6.701,33.701-18.026,33.701-18.026
	s-4.188,6.825-18.68,17.634c-11.368,8.48-20.188,11.677-23.765,13.005c10.775-3.831,75.363-27.217,120.819-66.169
	c49.681-42.573,73.151-86.735,73.151-86.735s-9.406,42.845-57.476,87.779c-48.07,44.935-103.141,52.7-103.141,52.7
	s61.108-3.718,113.592-35.98c52.484-32.262,68.968-77.33,68.968-77.33s-2.346,70.505-45.196,94.311
	c-32.011,17.784-71.955,15.964-89.528,14.021c19.866,2.372,68,5.793,97.625-11.671c59.829-35.268,64.268-101.886,64.268-101.886
	s32.133,86.996,36.834,140.29c4.703,53.295,0.785,79.158-2.35,137.156c-3.137,57.997-38.346,115.818-48.859,127.445
	c-15.613,17.268-18.801,34.631-18.1,52.464c-22.525,22.405-42.269,44.618-42.766,60.959c-1.043,34.484,25.081,49.115,25.081,49.115
	s-37.617-28.215-11.494-57.474c9.25-10.358,20.855-16.716,32.594-21.51c1.58,12.398,2.723,25.103,0.844,38.229
	c-6.27,43.89-40.752,64.268-36.051,106.589c4.702,42.322,39.186,53.295,61.131,114.428c18.809,52.389-68.446,95.88-60.607,186.794
	c1.451,16.829,5.887,31.479,12.063,44.603c-10.721,23.295-18.734,46.872-19.901,69.039c-3.134,59.566,41.538,57.215,41.538,57.215
	s-45.348-7.467-25.078-70.537c3.248-10.102,9.402-20.95,16.988-32.409c29.721,43.115,73.029,70.356,63.736,116.27
	c-9.576,47.327-62.176,26.388-62.176,26.388s31.611,20.376,67.662-3.136c45.797-29.865,11.969-114.427,7.055-132.976
	c0,0,30.566,25.863,31.35,69.753s-39.188,65.833-39.188,65.833s36.053-7.316,61.133-33.963
	c25.08-26.647,14.891-85.165,14.891-85.165s17.111,25.298,7.053,64.268c-9.404,36.444-57.262,46.936-57.262,46.936
	s32.182,3.224,63.531-29.693c26.373-27.69,36.705-48.564,36.461-70.69c5.281,7.861,11.896,14.436,19.188,18.963
	c26.91,16.706,50.158,6.271,50.158,6.271s-46.531,10.296-53.846-36.729C629.434,1103.255,654.996,1085.988,680.404,1072.582z
	 M701.564,1016.152c0,41.539-31.742,55.646-31.742,55.646s22.336-13.712,22.336-53.295c0-42.23-26.254-68.969-26.254-68.969
	S701.564,974.614,701.564,1016.152z M559.184,340.302c4.051,20.727,3.76,47.831,2.406,70.103
	c-2.908-15.899-5.961-33.962-7.629-55.986c-2.123-27.994-2.906-40.11-3.494-49.253C553.748,316.369,556.863,328.426,559.184,340.302
	z M295.076,996.252c-2.027,19.777-6.806,23.035-6.806,23.035l-3.659-12.901c0,0,4.8-10.994,4.597-27.927
	c-0.204-16.936-6.165-28.275-6.165-28.275S297.609,971.547,295.076,996.252z M25.041,860.708
	c-1.979,31.35,16.44,64.266,16.44,64.266S18.4,894.408,17.617,856.789c-0.784-37.62,39.971-72.888,39.971-72.888
	S27.021,829.357,25.041,860.708z M64.901,1084.865c28.215-20.378,32.611-47.17,32.611-47.17s0.044,0.074,0.116,0.194
	c-2.765,25.93-7.752,55.489-27.501,71.005c-19.013,14.94-31.761,32.577-33.194,48.959
	C32.133,1131.221,45.485,1098.89,64.901,1084.865z M34.859,1235.076c-15.127-20.799-3.74-36.036-1.431-38.752
	c6.338,4.106,12.97,6.61,19.065,7.271c18.204,1.985,36.909-7.19,49.528-15.347c-11.357,5.814-27.531,13.122-46.261,0.065
	c-5.783-4.029-10.134-9.06-13.284-14.712c-3.19-8.811-2.927-19.912,10.37-29.628c20.294-14.83,56.052-30,76.34-63.723
	c15.228,20.426,32.473,75.315-1.585,128.97C94.144,1261.93,51.579,1258.066,34.859,1235.076z M259.272,678.343
	c0,0,0.137-0.086,0.382-0.262C259.316,678.453,259.162,678.563,259.272,678.343z M269.72,626.092
	c6.155,14.066,2.623,28.409-1.939,38.52c-15.358-44.073-46.783-80.958-46.783-80.958C216.02,581.236,257.628,598.449,269.72,626.092
	z M245.957,1137.777c0.964,38.1,2.113,66.577-41.809,102.262c-34.962,28.408-66.245,30.114-83.971,27.781
	c22.043-4.336,45.894-14.193,69.087-30.912C233.563,1204.971,244.004,1162.881,245.957,1137.777z M182.986,1189.488
	c18.81-50.159,11.495-77.982,11.495-77.982s16.556,57.317-10.123,96.793c-26.678,39.478-58.193,41.976-58.193,41.976
	S164.177,1239.648,182.986,1189.488z M281.477,197.4c-31.032,33.711-75.007,50.621-87.152,54.831
	c12.003-8.518,26.66-19.164,44.308-32.364c64.267-48.07,83.338-83.86,83.338-83.86S317.792,157.951,281.477,197.4z M570.131,648.413
	c-15.32-15.192-28.205-29.006-32.893-41.246c-5.393-14.077-4.133-29.011-0.037-43.652c8.072,13.461,19.268,28.093,28.055,53.188
	C569.586,629.064,570.777,639.578,570.131,648.413z M599.715,716.388c0,0,32.182,27.851,31.563,57.558
	c-0.617,29.707-18.846,53.846-18.846,53.846s14.549-25.992,12.984-50.751C623.852,752.284,599.715,716.388,599.715,716.388z
	 M610.65,1086.689c-4.703,11.757-1.133,23.727-1.613,28.557c-3.947-9.193-8.705-19.13-14.063-30.125
	c-14.48-29.714,20.379-95.616,20.379-95.616s3.947,1.555,12.545,37.943C635.285,1058.726,622.984,1055.851,610.65,1086.689z"/>
<path fill="#514035" d="M429.128,250.368c-42.322,0-66.306,20.801-66.306,20.801S345,269.285,331,269.016v-0.033
	c-2,0-1.469,0.003-2,0.009c-0.531-0.005-2-0.009-2-0.009v0.033c-14,0.269-33.406,2.154-33.406,2.154s-24.492-20.801-66.814-20.801
	S139,266.239,139,266.239v16.262c0,0,12.266,1.187,13.126,27.039c0.782,23.512,16.36,75.631,75.532,75.24
	c51.335-0.784,73.376-38.99,73.792-67.205c0.328-22.14-2.411-34.028-2.411-34.028s17.96-2.597,27.96-2.817v0.008
	c0-0.016,1.463-0.021,1.998-0.022c0.539,0.001,0.002,0.006,2.002,0.022v-0.008c11,0.22,26.118,2.817,26.118,2.817
	s-3.959,11.888-3.635,34.028c0.416,28.215,22.335,66.421,73.668,67.205c59.174,0.392,75.658-51.728,76.441-75.24
	C504.456,283.688,518,282.501,518,282.501v-16.262C518,266.239,471.45,250.368,429.128,250.368z M296,316.594
	c0,0.051,0,0.107,0,0.158c0-0.048-1.221-0.092-1.561-0.092c-3.453,0-6.541,2.595-6.541,5.796c0,2.997,2.325,5.435,5.473,5.737
	c-5.803,20.937-27.019,50.319-63.058,50.339c-38.403,0.021-54.522-20.79-64.318-41.952c-9.797-21.161-6.297-45.065-1.987-57.213
	c4.311-12.147,30.944-21.553,58.375-21.553c27.431,0,44.842,3.919,60.518,16.066C298.575,286.028,296,316.594,296,316.594z
	 M488.203,336.579c-9.799,21.162-25.871,41.973-64.275,41.952c-36.036-0.02-57.153-29.402-62.956-50.339
	c3.147-0.302,5.685-2.74,5.685-5.737c0-3.201-1.577-5.796-5.031-5.796c-0.343,0,0.374,0.044,0.374,0.092c0-0.05,0-0.107,0-0.158
	c0,0-4.503-30.566,11.172-42.714c15.675-12.147,31.695-16.066,59.127-16.066c27.43,0,53.81,9.405,58.118,21.553
	C494.728,291.514,498,315.418,488.203,336.579z"/>
</svg>
